<?xml version="1.0"?>
<svg xmlns="http://www.w3.org/2000/svg" width="512" height="512" viewBox="0 0 128 128"><g><g><path d="M89.734,40.038c0-11.885-11.522-21.52-25.734-21.52s-25.734,9.635-25.734,21.52C38.266,48.2,43.7,55.3,51.7,58.944V62.9a4.1,4.1,0,1,0,8.2,0,4.1,4.1,0,0,0,8.2,0,4.1,4.1,0,1,0,8.2,0V58.944C84.3,55.3,89.734,48.2,89.734,40.038Z" fill="#f1f3f8"/><path d="M64,21.518V61.667l9.3.083V57.016l1.755-.8c7.2-3.285,11.676-9.484,11.676-16.177C86.733,29.826,76.535,21.518,64,21.518Z" fill="#c1d3ed"/><g><circle cx="54.104" cy="40.277" r="7.374" fill="#393c47"/><circle cx="73.896" cy="40.277" r="7.374" fill="#232534"/></g><path d="M38.187,101.7c-.014-.028-.031-.052-.046-.08l55.58-27.783c.014.028.023.057.036.085A5.376,5.376,0,1,0,99.333,66.2a5.373,5.373,0,1,0-9.52-.173c.014.028.031.052.046.08L34.279,93.894c-.014-.028-.023-.057-.036-.085a5.376,5.376,0,1,0-5.576,7.719,5.374,5.374,0,1,0,9.52.173Z" fill="#c1d3ed"/><path d="M89.813,101.7c.014-.028.031-.052.046-.08L34.279,73.838c-.014.028-.023.057-.036.085A5.376,5.376,0,1,1,28.667,66.2a5.373,5.373,0,1,1,9.52-.173c-.014.028-.031.052-.046.08l55.58,27.783c.014-.028.023-.057.036-.085a5.376,5.376,0,1,1,5.576,7.719,5.374,5.374,0,1,1-9.52.173Z" fill="#f1f3f8"/></g><g><path d="M48.043,24.905a1.74,1.74,0,0,0,.966-.292c.226-.15.457-.3.69-.44a1.75,1.75,0,0,0-1.828-2.985q-.405.249-.8.509a1.75,1.75,0,0,0,.97,3.208Z"/><path d="M54.938,21.73A28.294,28.294,0,0,1,64,20.268c13.225,0,23.983,8.869,23.983,19.77,0,5.446-2.637,10.523-7.426,14.293a1.75,1.75,0,0,0,2.166,2.75,21.857,21.857,0,0,0,8.76-17.043c0-12.831-12.329-23.27-27.483-23.27a31.756,31.756,0,0,0-10.181,1.646,1.75,1.75,0,0,0,1.119,3.316Z"/><path d="M49.948,60.046V62.9A5.847,5.847,0,0,0,59.9,67.068a5.84,5.84,0,0,0,8.2,0A5.847,5.847,0,0,0,78.052,62.9V58.944a1.75,1.75,0,0,0-3.5,0V62.9a2.351,2.351,0,1,1-4.7,0,1.75,1.75,0,0,0-3.5,0,2.351,2.351,0,0,1-4.7,0,1.75,1.75,0,0,0-3.5,0,2.351,2.351,0,1,1-4.7,0V58.944a1.749,1.749,0,0,0-1.023-1.591c-7.654-3.492-12.408-10.125-12.408-17.315a17.3,17.3,0,0,1,4-10.933,1.75,1.75,0,0,0-2.722-2.2,20.768,20.768,0,0,0-4.783,13.132C36.517,48.282,41.634,55.858,49.948,60.046Z"/><path d="M54.1,49.4a9.125,9.125,0,1,0-9.125-9.124A9.134,9.134,0,0,0,54.1,49.4Zm0-14.749a5.625,5.625,0,1,1-5.625,5.625A5.632,5.632,0,0,1,54.1,34.652Z"/><path d="M79.031,45.851a1.749,1.749,0,0,0,2.43-.471A9.126,9.126,0,1,0,73.9,49.4a1.75,1.75,0,0,0,0-3.5,5.622,5.622,0,1,1,4.665-2.48A1.75,1.75,0,0,0,79.031,45.851Z"/><path d="M76.2,92.838l-.6-.3a1.75,1.75,0,1,0-1.563,3.131l.6.3a1.749,1.749,0,0,0,2.346-.784A1.749,1.749,0,0,0,76.2,92.838Z"/><path d="M105.327,93.959A7.135,7.135,0,0,0,93.1,91.629L77.574,83.867,93.106,76.1a7.127,7.127,0,1,0,8.488-11.029,7.125,7.125,0,1,0-13.917.171L69.783,74.19a1.75,1.75,0,1,0,1.565,3.131l19.293-9.644a1.75,1.75,0,0,0,.794-2.326c-.018-.037-.048-.092-.076-.141a3.626,3.626,0,1,1,6.438.156,1.75,1.75,0,0,0,1.285,2.57,3.623,3.623,0,1,1-3.739,5.243c-.009-.022-.019-.043-.025-.057a1.748,1.748,0,0,0-2.379-.85L73.66,81.91,40.319,65.244a7.125,7.125,0,1,0-13.913-.17A7.124,7.124,0,1,0,34.9,76.1l15.529,7.762L34.894,91.63a7.126,7.126,0,1,0-8.487,11.028,7.125,7.125,0,1,0,13.916-.171L57.96,93.671A1.75,1.75,0,0,0,56.4,90.54l-19.037,9.516a1.748,1.748,0,0,0-.783,2.347c.015.03.041.076.065.118a3.627,3.627,0,1,1-6.438-.155A1.749,1.749,0,0,0,28.918,99.8a3.622,3.622,0,0,1-1.106-6.827,3.624,3.624,0,0,1,4.845,1.584l.025.056a1.748,1.748,0,0,0,2.379.85L54.34,85.823l13.675,6.835a1.75,1.75,0,0,0,1.564-3.131L35.061,72.272a1.748,1.748,0,0,0-2.379.85c-.006.013-.016.035-.025.058a3.626,3.626,0,1,1-3.739-5.244,1.75,1.75,0,0,0,1.285-2.57,3.624,3.624,0,1,1,6.438-.155c-.028.048-.057.1-.076.14a1.75,1.75,0,0,0,.794,2.326L92.939,95.46a1.748,1.748,0,0,0,2.379-.85c.006-.012.016-.035.025-.057A3.626,3.626,0,1,1,99.082,99.8a1.749,1.749,0,0,0-1.285,2.569,3.624,3.624,0,1,1-6.438.155c.024-.041.049-.087.065-.118a1.748,1.748,0,0,0-.783-2.347l-8.959-4.479a1.75,1.75,0,0,0-1.565,3.131l7.563,3.78a7.126,7.126,0,1,0,13.914.17,7.117,7.117,0,0,0,3.733-8.7Z"/></g></g></svg>
