<?xml version="1.0" encoding="UTF-8"?>
<svg xmlns="http://www.w3.org/2000/svg" xmlns:xlink="http://www.w3.org/1999/xlink" width="64pt" height="64pt" viewBox="0 0 64 64" version="1.1">
<g id="surface720221">
<path style=" stroke:none;fill-rule:nonzero;fill:rgb(100%,100%,100%);fill-opacity:1;" d="M 48.5 10.5 C 40.792969 10.5 34.507812 16.777344 34.5 24.484375 L 25.769531 35.625 C 25.402344 36.097656 25.347656 36.742188 25.632812 37.265625 C 25.917969 37.792969 26.488281 38.097656 27.085938 38.042969 L 27.53125 38.003906 C 31.648438 38.019531 35 41.378906 35 45.5 C 35 45.5625 35.003906 45.621094 35.007812 45.683594 C 34.976562 45.792969 34.957031 45.90625 34.953125 46.019531 C 34.746094 49.878906 31.519531 53 27.5 53 C 25.144531 53 23.078125 51.957031 21.707031 50.296875 C 21.371094 49.871094 20.828125 49.660156 20.292969 49.746094 C 19.757812 49.832031 19.308594 50.199219 19.121094 50.710938 C 18.933594 51.222656 19.039062 51.792969 19.390625 52.203125 C 21.320312 54.542969 24.253906 56 27.5 56 C 32.820312 56 37.183594 52.007812 37.835938 46.917969 C 41.101562 44.359375 45.136719 41.179688 48.523438 38.5 C 56.222656 38.484375 62.5 32.203125 62.5 24.5 C 62.5 16.789062 56.210938 10.5 48.5 10.5 Z M 48.5 13.5 C 54.589844 13.5 59.5 18.410156 59.5 24.5 C 59.5 30.589844 54.589844 35.5 48.5 35.5 L 48 35.5 C 47.664062 35.5 47.335938 35.613281 47.070312 35.824219 C 44.15625 38.132812 40.777344 40.789062 37.722656 43.1875 C 36.828125 39.28125 33.746094 36.195312 29.84375 35.289062 L 37.179688 25.925781 C 37.386719 25.660156 37.5 25.335938 37.5 25 L 37.5 24.5 C 37.5 18.410156 42.410156 13.5 48.5 13.5 Z M 48.5 16 C 43.824219 16 40 19.824219 40 24.5 C 40 29.175781 43.824219 33 48.5 33 C 53.175781 33 57 29.175781 57 24.5 C 57 19.824219 53.175781 16 48.5 16 Z M 48.5 19 C 51.554688 19 54 21.445312 54 24.5 C 54 27.554688 51.554688 30 48.5 30 C 45.445312 30 43 27.554688 43 24.5 C 43 21.445312 45.445312 19 48.5 19 Z M 5.605469 31.355469 C 3.851562 31.339844 2.160156 32.351562 1.425781 34.054688 C 0.445312 36.316406 1.484375 38.992188 3.753906 39.976562 L 25.695312 49.625 C 25.722656 49.632812 25.746094 49.644531 25.773438 49.652344 C 26.277344 49.84375 26.851562 50 27.5 50 C 29.210938 50 30.898438 48.972656 31.628906 47.238281 C 32.601562 44.980469 31.566406 42.3125 29.300781 41.328125 L 7.351562 31.726562 C 7.347656 31.726562 7.347656 31.722656 7.347656 31.722656 C 6.78125 31.480469 6.191406 31.359375 5.605469 31.355469 Z M 5.578125 34.359375 C 5.773438 34.359375 5.96875 34.398438 6.152344 34.476562 L 28.097656 44.074219 C 28.101562 44.074219 28.101562 44.074219 28.105469 44.074219 C 28.832031 44.390625 29.195312 45.316406 28.875 46.054688 C 28.871094 46.058594 28.867188 46.066406 28.867188 46.074219 C 28.589844 46.730469 28.085938 47 27.5 47 C 27.351562 47 27.128906 46.957031 26.835938 46.847656 L 4.953125 37.226562 C 4.953125 37.226562 4.949219 37.222656 4.945312 37.222656 C 4.21875 36.90625 3.855469 35.984375 4.175781 35.246094 C 4.335938 34.882812 4.644531 34.609375 5.007812 34.46875 C 5.1875 34.398438 5.382812 34.359375 5.578125 34.359375 Z M 5.578125 34.359375 "/>
</g>
</svg>
